<svg viewBox="0 0 65.76 69.87" xmlns="http://www.w3.org/2000/svg"><path d="m64.36 33.89c-.14-.09-.2-.14-.08-.29s-.11-.22 0-.32a.86.86 0 0 0 0-.42 2.59 2.59 0 0 1 0-1c0-.12-.11-.29 0-.41v-.07s-.12-.14-.15-.23a1.65 1.65 0 0 1 -.11-.73 7.41 7.41 0 0 0 0-1.33.7.7 0 0 0 -.06-.33 1.26 1.26 0 0 1 -.12-1 6.09 6.09 0 0 1 .1-.73c.08-.29-.07-.55-.09-.82s-.16-.2-.24-.3-.14-.26 0-.43.15-.33 0-.47a.24.24 0 0 1 -.09-.22 1.4 1.4 0 0 0 -.23-.79l-.67-1.32-.17-.09a.39.39 0 0 1 -.22-.5l-.1-.09c-.07-.15-.15-.29-.21-.44-.17-.45-.32-.9-.48-1.34a1 1 0 0 0 -.72 0c-.3.06-.33 0-.42-.3a.22.22 0 0 0 0-.08.49.49 0 0 0 -.22.08.08.08 0 0 1 -.13-.07c0-.21 0-.42 0-.62a1.07 1.07 0 0 1 .18-.58v-.16c-.41.37-.4.3-.78 0-.17-.14-.36-.29-.55-.25s-.25-.07-.34-.17 0-.1.07-.12a.29.29 0 0 0 .13-.37l.58-.31c.11 0 .18-.06.12-.19s-.05-.05-.06-.08a2.83 2.83 0 0 0 -.73-1.32c-.39-.44-.8-.87-1.19-1.31a.55.55 0 0 0 -.29-.18.2.2 0 0 1 -.12-.06h-.08l-.28-.13a.14.14 0 0 0 0-.08.19.19 0 0 0 0-.19 1.83 1.83 0 0 1 -.35-.66s0 0-.08-.06a.22.22 0 0 0 -.18-.21 3.24 3.24 0 0 1 -.37-.46 3.71 3.71 0 0 0 -1.29-1.2 2.48 2.48 0 0 1 -.65-.56 6.09 6.09 0 0 0 -1.79-1.49c-.21-.11-.42-.2-.62-.31s-.18-.07-.2-.13c-.1-.31-.39-.44-.61-.62a14.32 14.32 0 0 0 -2.7-1.81c-.67-.33-1.32-.68-2-1a13.2 13.2 0 0 0 -1.41-.7.7.7 0 0 0 -.17-.09 11 11 0 0 0 -1.3-.21 1.91 1.91 0 0 1 -.7-.18.44.44 0 0 0 -.29-.04.6.6 0 0 1 -.23 0 .26.26 0 0 0 -.33.09.49.49 0 0 1 -.58.14c-.22-.07-.43-.17-.64-.25s-.29-.26-.52-.21-.15-.08-.2-.17-.12-.17-.2 0a.26.26 0 0 1 -.22.15c-.14 0-.29-.06-.43 0l-.2.09-.11-.08a.72.72 0 0 1 -.38-.07.18.18 0 0 0 -.23 0 .44.44 0 0 1 -.62 0c-.08-.07-.21 0-.32-.08s-.32 0-.48.23l-.1-.15a.13.13 0 0 0 -.19 0 .75.75 0 0 0 -.53 0 .35.35 0 0 1 -.33 0c-.28-.09-.58-.06-.86-.17a6 6 0 0 0 -1.34.07l-.4-.2a.24.24 0 0 0 -.24-.11h-.22a.59.59 0 0 0 -.31-.09c-.07-.06-.16 0-.23-.07s-.28.11-.42 0a2 2 0 0 0 -.4-.16h-.05a1.75 1.75 0 0 1 -.33-.05 5.6 5.6 0 0 0 -.9-.21 1.35 1.35 0 0 0 -.53 0 4.44 4.44 0 0 1 -1.36 0 .69.69 0 0 0 -.47.07 1.26 1.26 0 0 1 -.33.1.29.29 0 0 1 -.32-.15c-.16 0-.14.15-.14.27s-.08.15-.16.09a.32.32 0 0 0 -.45-.08l-.38.06a1.79 1.79 0 0 1 -.83 0 .49.49 0 0 0 -.39.06h-.07a.84.84 0 0 0 -.35.07h-.06c-.24.08-.57 0-.6.41 0 0-.08 0-.12.07l-.26.12-.42.18h-.07a1.42 1.42 0 0 0 -.53.34.73.73 0 0 1 -.77.15.39.39 0 0 0 -.28 0l-.92.34a.14.14 0 0 0 -.1.15 1.49 1.49 0 0 1 -.12.75c-.08.34-.32.43-.58.52-.09 0-.2 0-.28.07a.29.29 0 0 1 -.46 0 .37.37 0 0 0 -.6 0 .17.17 0 0 0 0 .18 1.13 1.13 0 0 1 .1.51l-.06.07c-.13.16-.12.19 0 .39a.57.57 0 0 0 .08.13.94.94 0 0 0 -.1.1.38.38 0 0 0 -.19.3.21.21 0 0 0 -.16.2.15.15 0 0 1 -.13.16.86.86 0 0 0 -.42 0 .41.41 0 0 0 -.41.33h-.05c-.33-.2-.37-.19-.53.13a.3.3 0 0 0 .09.42c-.18.64-.46.81-1.11.67a.7.7 0 0 0 -.14 0c-.08 0-.11 0-.12.11 0 .26 0 .27-.24.32l-.48.09a.42.42 0 0 0 -.35.23c-.09.18-.15 0-.21 0l-.19-.2c-.09-.3-.42-.4-.58-.65a.15.15 0 0 0 -.18 0l-.23.1a.05.05 0 0 0 0 0c-.1-.13-.13-.15-.27-.1h-.1a1.54 1.54 0 0 0 -.4.51c0 .09-.11.1-.19.11s0 0-.06 0a.22.22 0 0 0 -.2.09l-.48.51a.33.33 0 0 0 -.11.43.32.32 0 0 0 .24.22 2.46 2.46 0 0 0 1.72-.31s0 0 0 0h.05l.1-.2a.16.16 0 0 1 .19-.1l.1.1a1.72 1.72 0 0 0 0 .39.19.19 0 0 0 .14.18.17.17 0 0 0 .21-.09c0-.09.06-.19.09-.28l.1-.1c.13 0 .18.13.08.26s0 .14 0 .16c.27.08.55.2.82-.05a.83.83 0 0 1 .16-.09h.08s.06.1.1.11l.84.29a.14.14 0 0 0 .17-.12c0-.25 0-.5 0-.74s.08-.36.31-.38h.05c.26-.07.44-.2.42-.51a.23.23 0 0 1 .04-.32 1.06 1.06 0 0 1 .57-.35.79.79 0 0 0 .7-.64.66.66 0 0 1 0-.37 1 1 0 0 0 .5-.42.44.44 0 0 1 .13-.07s0-.06 0-.09a.13.13 0 0 0 0 0 .51.51 0 0 0 .1-.34l.14-.05c.06 0 .12-.06.17 0s0 .12 0 .17a.35.35 0 0 0 -.05.08c-.09.08-.19.16-.12.29s.17.06.26 0h.14a1 1 0 0 1 .29.4c0 .11-.05.22-.07.34a.12.12 0 0 0 .04.2l.09.3a.51.51 0 0 0 .05-.12.19.19 0 0 1 -.05.12s0 .06 0 .09l-.23.18a.36.36 0 0 0 -.28.28 1.45 1.45 0 0 1 -.11.26.72.72 0 0 1 -.33 0c-.14 0-.17 0-.14.17s.06.28.1.43 0 0 .06 0a.56.56 0 0 0 .05-.08.41.41 0 0 0 .48-.21.49.49 0 0 1 .4.31c0 .1.09.19.18.2s.32.21.5.27a1.53 1.53 0 0 0 .79.11c.15.11.16.36.29.43s.34 0 .51.07.1 0 .14 0a.3.3 0 0 1 .21.29c0 .29 0 .29.31.26h.18c.1.12.06.29.19.39a2.29 2.29 0 0 1 .08.28c0 .17 0 .23-.22.2a1.55 1.55 0 0 0 -.77 0 .05.05 0 0 0 0 0c-.09.17-.09.17-.22 0s-.17-.15-.28 0l-.53.54h-.29s-.05-.06-.07-.06a5.15 5.15 0 0 1 -.68-.15.9.9 0 0 1 -.44-.18c0-.09 0-.19-.12-.22s-.13.05-.17.12c-.14-.1-.25-.21-.16-.41a1.73 1.73 0 0 0 .06-.68.13.13 0 0 0 -.2 0 .14.14 0 0 1 -.2 0l-.19-.22c0-.07.11 0 .17-.06s.14 0 .15-.11a.12.12 0 0 0 -.12-.13l-.38-.09a.39.39 0 0 0 -.45.12c-.07.09-.17.15-.25.24a.5.5 0 0 0 -.09.63c.06.1.11.2.16.3.15.17.33.32.3.57a.15.15 0 0 1 -.09.1.58.58 0 0 0 0 .29c.18.13.44.17.5.45 0 0 .11 0 .17.06s.1-.13.19-.11.19.07.28.07c.42 0 .48.33.57.62 0 .12 0 .22-.05.33a.14.14 0 0 0 .14.16 1.15 1.15 0 0 0 .71-.6.76.76 0 0 0 0-.15 2 2 0 0 0 -.06-.23l.4.11v.1c0 .06-.06.11-.08.17a.26.26 0 0 0 .07.31.26.26 0 0 0 .35 0l.07-.06s.06-.06.1-.09h.2c.11-.14.15-.34.3-.46h-.05v.18a.71.71 0 0 0 0 .31.58.58 0 0 1 -.45.46s0 .05-.05.08c-.19.23-.28.56-.59.68a.16.16 0 0 0 -.06.08 2.65 2.65 0 0 0 -.07.48c0 .14.19.1.27.17l.17.18c.25.25.41.21.58-.14l.08-.12h.2a.12.12 0 0 0 .1.09s0 0 0 0h.05a.5.5 0 0 0 .28-.58 2.19 2.19 0 0 0 -.17-.29.46.46 0 0 1 -.05-.5 1.29 1.29 0 0 0 .14-.51 1.19 1.19 0 0 1 .77 0 .32.32 0 0 1 .22.17c.06.11.16.11.22 0l.36-.52a.17.17 0 0 1 .26 0 .77.77 0 0 1 .33.67.78.78 0 0 0 -.33.62 1.37 1.37 0 0 1 -.05.28.89.89 0 0 0 .1.5c.08.18.25.32.19.56-.14 0-.28-.06-.41 0a1.23 1.23 0 0 1 -.7.3.63.63 0 0 0 -.39.15 2.17 2.17 0 0 1 .33.86 1.43 1.43 0 0 0 .67-.52.3.3 0 0 0 .35 0 .74.74 0 0 1 .45-.24c0 .13.07.26.11.39h.09c0 .06.09.1.16.06a.1.1 0 0 0 .05-.08c0-.08 0-.12-.11-.12h-.1c0-.13-.05-.26-.21-.29.25.15.43.48.8.34a1.6 1.6 0 0 1 .72 0 1.29 1.29 0 0 1 .8-.09c.15 0 .3.07.43-.05.25.14.28.11.49-.14a.56.56 0 0 1 .58.2c.07.16.19.14.32.1v-.07h.11.12a1.16 1.16 0 0 0 .93 0c.21 0 .4.17.62 0a.94.94 0 0 0 .36-.43.05.05 0 0 0 0-.05.68.68 0 0 1 .37.24c.15.16.25.42.54.4.47-.06.9-.17 1-.74.05.19.12.36.37.39v.03h-.09c-.06.05-.12.13-.19.15a.74.74 0 0 0 -.41.44.13.13 0 0 1 -.12.05l-.17.07s0 0 0 .06l.1.11c.14.15.24.3.13.52a1 1 0 0 0 0 .39.16.16 0 0 0 .15.17l.28.06a.39.39 0 0 0 .38 0 1.5 1.5 0 0 1 .91-.32 1 1 0 0 0 .23-.08.11.11 0 0 1 .12.05 1.05 1.05 0 0 0 .12.21c.06.07.2.09.16.22a.26.26 0 0 1 -.18.16 1.47 1.47 0 0 0 -.55.41.29.29 0 0 1 -.12.07c-.36.13-.71.26-1.07.37-.15 0-.31.06-.4.19a.83.83 0 0 1 -.64.3 3.74 3.74 0 0 1 -.44.87c0 .06-.09.12-.09.18 0 .49-.4.76-.67 1.09-.08.1-.2.17-.26.29a.4.4 0 0 1 -.19.15c-.33.09-.59.34-.92.44-.14.05-.24.09-.24-.13 0 0-.08 0-.11 0s-.1.11 0 .17a1.87 1.87 0 0 0 .4.27.53.53 0 0 1 .26.81c0 .05-.11.06-.16.09l-.09.11.29.18c.2.12.22.19.06.38s-.2.39-.45.41a.9.9 0 0 0 -.29.16.67.67 0 0 0 -.31.57.74.74 0 0 1 -.09.46 2 2 0 0 1 0 .25.19.19 0 0 1 -.15.17.17.17 0 0 1 -.21-.09l-.24-.37a.17.17 0 0 0 -.28 0c-.05.1-.09.21-.14.31a.46.46 0 0 1 -.52.34.81.81 0 0 0 -.43.08c-.15.07-.27.21-.47.16a.24.24 0 0 0 -.24.13.11.11 0 0 1 -.08.11.29.29 0 0 1 0 .09c-.19.18-.29.48-.61.52 0 0-.05.08-.07.12a1.57 1.57 0 0 1 -.09.23.24.24 0 0 1 -.12.07.12.12 0 0 1 -.15-.09c0-.11 0-.22 0-.34h-.08c-.17 0-.17 0-.2-.15a.28.28 0 0 1 0-.09c-.16 0-.29.12-.4-.1a1.11 1.11 0 0 0 -.7-.27c-.13 0-.15.16-.18.27a.41.41 0 0 0 -.19.2 1.73 1.73 0 0 1 -.14.35.05.05 0 0 0 -.08 0 .22.22 0 0 0 .07-.09.3.3 0 0 0 0-.34 1.32 1.32 0 0 0 .43-.48c.06-.11 0-.19-.07-.27a1.63 1.63 0 0 0 -1 .15.53.53 0 0 1 -.33.05h-.3a.11.11 0 0 0 -.13.1c0 .05 0 .12-.05.11s-.33.17-.52.1a.27.27 0 0 0 -.21-.1c-.06 0-.14 0-.15-.1s-.05-.2-.2-.2a.3.3 0 0 1 -.28-.24 1.09 1.09 0 0 0 -.46-.61.27.27 0 0 0 -.17-.3 2.12 2.12 0 0 1 -.2-.12.65.65 0 0 0 -.36-.12 1 1 0 0 1 -.55-.27c0-.16.15-.21.25-.27a.3.3 0 0 0 .16-.22.42.42 0 0 0 .34-.47c0-.32.13-.43.4-.49a.64.64 0 0 0 -.33-.18s-.12 0-.13 0a2.71 2.71 0 0 1 -.41.59c-.07.09 0 .15.09.14s.12 0 .1.11-.07.18-.1.27h-.24c-.25 0-.32.06-.32.3a1.39 1.39 0 0 0 .06.19c-.07.26-.13.52-.2.78l-.09.11-.35.16c-.22.13-.42.17-.61-.05a.46.46 0 0 0 -.16-.11.36.36 0 0 0 -.51.25v.53a.34.34 0 0 1 .27.07c.23.1.23.1.42-.16.07.05.1.18.23.07s.36-.13.43.1 0 .22.05.34 0 .05 0 .08a.5.5 0 0 1 -.41-.08.11.11 0 0 0 -.19.06.14.14 0 0 0 .09.19l.31.13a.13.13 0 0 1 0 .2.32.32 0 0 1 -.12.08c-.4-.13-.46-.1-.59.3l-.22.21c-.08 0-.17-.11-.26 0s-.09.14-.19.1a.33.33 0 0 0 -.29 0c-.09 0-.15 0-.2-.08l-.33-.6c0-.06-.07-.15-.05-.18.13-.22 0-.46.08-.68s0-.18-.13-.2a.41.41 0 0 0 -.29 0 .24.24 0 0 1 -.32 0 2.43 2.43 0 0 0 -.57-.37.53.53 0 0 1 -.22-.71 2.34 2.34 0 0 0 .19-.5c0-.14-.11-.27-.09-.43a.28.28 0 0 0 0-.09c.05-.31.07-.61-.34-.68 0 0 0-.09 0-.12l.09-.05c.41-.19.41-.18.12-.51-.08-.08-.15-.18-.27-.19a.38.38 0 0 1 -.24-.17l-.28-.34a.18.18 0 0 0 -.26-.05 1.83 1.83 0 0 0 -.36.26.59.59 0 0 0 -.12.71 3.91 3.91 0 0 1 .28.63.19.19 0 0 1 0 .08v.1a.27.27 0 0 0 -.08.35c.08.12.14.25.21.38a.33.33 0 0 0 .26.18v.08h-.5c-.05-.09-.07-.21-.22-.18h-.28s0 0 0 0c0 .27.13.51.08.78a.83.83 0 0 0 -.2.81c0 .12.06.23 0 .34a1.78 1.78 0 0 0 -.11.72l-.11.19c-.13.17-.37.21-.48.41a.5.5 0 0 1 -.36.07 1.32 1.32 0 0 0 -.55-.74c-.14 0-.23-.18-.4-.13a.23.23 0 0 1 -.17-.07 3.06 3.06 0 0 0 -.49-.3c-.09 0-.22-.1-.22-.24a.59.59 0 0 1 .14-.4c.06-.05.14-.08.2-.13s.08-.14.08-.22a.36.36 0 0 0 -.2-.26l-.27-.12a.56.56 0 0 1 -.29-.38.22.22 0 0 1 .18-.29c.12 0 .23 0 .31-.12.37-.24.38-.26.29-.63a.34.34 0 0 0 -.38-.3c-.1 0-.2.05-.29 0a.27.27 0 0 0 -.39.07c-.09.09 0 .21 0 .32a.78.78 0 0 1 .11.42.32.32 0 0 1 -.24.28.21.21 0 0 1 -.26-.16.19.19 0 0 0 0-.09.16.16 0 0 0 -.35-.07.34.34 0 0 0 -.12.56 1.05 1.05 0 0 1 .25.3v.15a.21.21 0 0 0 0 .27.22.22 0 0 1 0 .31 1.47 1.47 0 0 0 -.1.22h-.19l-.09-.14a.61.61 0 0 0 0-.14c0-.22-.12-.31-.2-.27s-.1.18-.11.29-.24.22-.38 0a.11.11 0 0 0 -.19 0h-.36c.19-.2.37-.4.55-.61a.08.08 0 0 0 0-.09.26.26 0 0 0 -.11-.07.58.58 0 0 0 -.19 0 .57.57 0 0 1 -.56-.08l-.17-.08-.07-.13s0 0 0-.07l-.23-.17c-.16-.1-.19-.08-.28.16a.23.23 0 0 1 -.08.11 1.11 1.11 0 0 1 -.3-.31 4.54 4.54 0 0 1 -.09-.51c0-.27.08-.32.39-.28s.33-.14.49-.19.13-.18.1-.29c-.07-.29-.18-.53-.52-.57a.19.19 0 0 1 -.15-.18 2.58 2.58 0 0 1 0-.29c0-.14-.06-.15-.3-.14a.69.69 0 0 0 -.3-.58c-.1-.23-.1-.24.1-.24a.65.65 0 0 0 .31-.08 1.14 1.14 0 0 1 .46.28.34.34 0 0 1 .16.38v.34s.12.16.22.11a.27.27 0 0 0 .15-.18c0-.08 0-.17.1-.23a.71.71 0 0 0 .53.17.26.26 0 0 0 .24-.26 1.86 1.86 0 0 0 0-.34c0-.24 0-.25-.32-.23-.06 0-.13 0-.16-.06s0-.12.06-.17l.09-.11a.09.09 0 0 0 0-.13.15.15 0 0 0 -.14 0 .59.59 0 0 0 -.2.12.81.81 0 0 1 -.31.15h-.32a3.11 3.11 0 0 1 -.61 0c-.07-.09-.17-.16-.1-.3-.2-.19-.31-.21-.48-.07s-.28.26-.42.39c-.06-.07-.11-.09-.17-.07a.3.3 0 0 0 -.11.06h-.31l.08-.09c.1 0 .16-.12.11-.22s-.09-.18-.2-.17-.15.11-.17.2a.34.34 0 0 0 0 .1l-.11.3a.22.22 0 0 0 -.13.06s0 .09.06.1l.17.01a.1.1 0 0 0 0 0c-.24.3-.41.59-.17 1a.14.14 0 0 1 -.1.19 2.11 2.11 0 0 0 -.25 0 .13.13 0 0 0 -.09.2 0 0 0 0 0 0 0c0 .12-.06.26-.11.37a1 1 0 0 0 -.08.48c0 .09 0 .16.15.15h.09c.09 0 .17 0 .17.14a.13.13 0 0 1 -.14.12c-.2 0-.29.1-.4.23h.03a3.17 3.17 0 0 0 -.05.92c0 .07 0 .17.14.15 0-.18.07-.35.11-.52a.08.08 0 0 1 .13 0c0 .05.09.11.08.16a4.52 4.52 0 0 0 0 .64.22.22 0 0 1 -.2.24c-.14 0-.17.13-.17.25s0 .23 0 .34.05.14.13.12a.14.14 0 0 0 .09-.09c0-.18.12-.3.16-.46a.55.55 0 0 1 .12-.21c.05-.09 0-.2.09-.3a3.42 3.42 0 0 0 .26.84.19.19 0 0 1 0 .08.2.2 0 0 0 .1.24c.13.07.27.11.4.17a.28.28 0 0 1 .19.26 1.41 1.41 0 0 0 .25.89c-.18 0-.32-.08-.43.05l-.12.08c-.07 0-.13 0-.19 0a.78.78 0 0 0 -.25.47.1.1 0 0 0 .08.11c.15 0 .3.05.44.09a.67.67 0 0 0 .68-.14.75.75 0 0 1 .39-.21.5.5 0 0 0 .29-.16c.16-.15.31-.05.46 0s.12.17.12.29a1.09 1.09 0 0 0 .07.67.35.35 0 0 1 0 .44 1 1 0 0 1 -.37.38.75.75 0 0 0 -.33.41v.31-.15a.2.2 0 0 1 0 .15.63.63 0 0 0 -.42.53v.38.11.23c-.08 0-.17 0-.19.08s-.11.23-.29.11-.2 0-.21.14-.2.27-.37.28a1.37 1.37 0 0 1 -.34 0c0 .33.27.41.54.47s.2 0 .26-.12.1-.13.21 0l.6.57a2.07 2.07 0 0 1 .5 1s0 .09.07.13a.23.23 0 0 1 .08.11l-.11-.11a.12.12 0 0 0 .08.11.76.76 0 0 1 -.19.38c-.09.07-.17.12-.29 0s-.16 0-.2.09l-.56.19c-.07 0-.18 0-.16.14s.11 0 .16.07.07.14 0 .21-.15.14-.12.25.15.16.27.19h.19c.05 0 .1 0 .11.08 0 .21.16.19.29.1s.35-.17.52 0a.32.32 0 0 0 .23.07c.15 0 .2.09.21.22s0 .17.13.18l.1-.11c0-.06.1-.14.2-.09s.07.1.1.16-.11.28-.15.42.22.09.33.12.12 0 .14.1-.07.11-.18.1h-.14c-.08 0-.16.07-.18.16s-.19.29-.3.43a.28.28 0 0 0 0 .09.32.32 0 0 0 -.3.2.77.77 0 0 0 -.66-.2c-.22 0-.23 0-.25.18a1.14 1.14 0 0 1 -.07.32.43.43 0 0 1 .08.31c0 .12-.12.13-.2.18a.18.18 0 0 0 0 .22.15.15 0 0 0 .18 0 .57.57 0 0 0 .3-.23.37.37 0 0 1 .33-.07.68.68 0 0 0 .52-.21.12.12 0 0 1 .1-.06l-.1.06c.12 0 .26 0 .19.19a.21.21 0 0 0 .13.31.77.77 0 0 1 .46.49c0 .2-.06.41.22.46h.09a.17.17 0 0 0 .19 0 .34.34 0 0 0 .22.28c-.16.23-.16.23.08.31l.23-.08s.1 0 .11.06 0 .09 0 .12c-.19.21-.2.29 0 .47a1 1 0 0 0 .41.27 2.51 2.51 0 0 1 .89.73.18.18 0 0 1 .05.17v.24l-.11.09a1.25 1.25 0 0 1 -.24.16.16.16 0 0 1 -.22 0 .38.38 0 0 0 -.51-.13 1 1 0 0 1 -.62 0l-.1.07h-.23c0-.18 0-.21-.12-.2h-.08-.1l-.09-.11a.85.85 0 0 0 0-.23c0-.12-.08-.16-.18-.09l-.15.12v-.08c0-.25 0-.25-.29-.3 0-.28 0-.31.17-.38h.14c.2 0 .25-.19.29-.35s0-.07 0-.09-.06 0-.08 0l-.27.16-.41-.2c-.3-.22-.72-.18-1-.41a.18.18 0 0 0 -.26.15c0 .28-.09.58.09.85v.39a.57.57 0 0 0 .13.62h.07.09c.06 0 .15 0 .19.09a.45.45 0 0 1 -.16.28c-.08.05-.19.1-.13.22s.13.05.21.07h.09c.06.09.18.07.27.11.14.25 0 .59.28.81.08.06 0 .25.13.28a1.29 1.29 0 0 0 .34 0h.47a.45.45 0 0 1 .34.15v.24s.07.09.11 0c.22-.18.49-.11.73-.17l.11.19v.09c-.1.22-.2.42-.49.41a.09.09 0 0 0 -.1.09v.09a1.77 1.77 0 0 1 -.2.6c-.06 0-.08 0-.12 0s-.28 0-.28.15.06.23-.08.3-.06.05 0 .07a.25.25 0 0 1 0 .38s0 .07 0 .08a2.13 2.13 0 0 1 .58.54h.05c-.06.18-.2.36.06.51.07 0 0 .12 0 .17s-.05.11 0 .12c.22 0 .24.19.25.37s.31.08.45.15.19.19.13.28a.59.59 0 0 0 .06.61 1.23 1.23 0 0 1 0 .57c-.06.31 0 .53.39.43a.61.61 0 0 1 .19 0 1.94 1.94 0 0 0 0 .24c0 .15.05.16.27.16v.16a.26.26 0 0 0 .15.19 3.41 3.41 0 0 1 .5.19c.18.11.09.38.23.53l-.14.14s-.09.06-.06.11a.27.27 0 0 0 .13.13c.08 0 .15 0 .22-.06s.12 0 .15.09a.43.43 0 0 0 0-.18s0 .1 0 .18l.07.1c-.26.22-.26.27 0 .44a1.88 1.88 0 0 0 .24.14c.15.19.32.24.51.06h.09l.08.11v.08c0 .14-.07.28-.09.42a.12.12 0 0 0 .1.14.14.14 0 0 0 .16-.08c0-.08.07-.18.11-.27s0 .1.09.11a.5.5 0 0 1 .38.54 1.94 1.94 0 0 0 0 .24c0 .12.14.16.27.1a.94.94 0 0 0 .12-.09l.06.07c.15.11.26.21.16.43s.09.08.16.1a.37.37 0 0 0 .46.48c.11.07.21 0 .32 0s0 0 0 .07-.25 0-.35.13c.17.08.24.29.45.33h.05c.1 0 .21.08.23.15.09.28.37.41.48.67a.53.53 0 0 0 .54.33c.07.18.07.19.22.12s.15 0 .18.07l-.09.11a.27.27 0 0 0 0 .31 1.83 1.83 0 0 0 .62.28c-.06 0-.08.06-.11.09v.09a.18.18 0 0 0 .19.1.32.32 0 0 0 .2.1.35.35 0 0 0 .3.13h.39a.5.5 0 0 0 .32.53 6.84 6.84 0 0 1 .65.37 2.46 2.46 0 0 1 .43.21c.49.34 1.06.55 1.55.88a.55.55 0 0 0 .41.28c-.06.06-.15.1-.14.19s.06.11.1.16a.52.52 0 0 0 .39.17 1.1 1.1 0 0 1 .67.13 1 1 0 0 0 .59.16 2.41 2.41 0 0 1 .37.07c0 .08.07.2.2.14a.71.71 0 0 1 .78 0 .28.28 0 0 0 .39-.07.72.72 0 0 0 -.51-.33.52.52 0 0 1 -.31-.14.49.49 0 0 0 -.37-.09c-.09 0-.18-.11-.28 0a.65.65 0 0 0 -.14 0c-.13 0-.13.1-.06.19a.17.17 0 0 1 -.24.08.18.18 0 0 1 -.08-.21 3.59 3.59 0 0 1 .26-.92.35.35 0 0 1 .25-.22.64.64 0 0 0 .87.18 1 1 0 0 0 .42-.63 1 1 0 0 1 .69-.75.15.15 0 0 0 .07.05.59.59 0 0 0 .23 0h-.06a.09.09 0 0 1 .06 0c.17.25.17.25.35 0a.86.86 0 0 1 .14-.13v-.08a.33.33 0 0 0 0-.4l-.11-.16a.24.24 0 0 0 0-.12 1.57 1.57 0 0 1 0-.61s0 0 0-.07 0-.09.06-.12l-.1-.06h-.06c.27-.15.25-.42.27-.67a.83.83 0 0 0 -.52-.21.31.31 0 0 1 -.27-.23v-.06l.12.07c.29.12.31.11.45-.17a.52.52 0 0 1 .67-.22.12.12 0 0 1 0 .07v.13s-.19 0-.28.09a.32.32 0 0 0 -.14.12s0 .09 0 .14a.11.11 0 0 0 .08 0h.19a.36.36 0 0 1 .46.26l.12.28a.54.54 0 0 0 .33-.2 1.68 1.68 0 0 1 .84-.47 1.16 1.16 0 0 0 .55-.31.66.66 0 0 1 .58-.2 5.18 5.18 0 0 1 .88 0c-.07-.45-.07-.45.15-.69-.25-.09-.51-.12-.75-.23a2 2 0 0 1 -.6-.43l-.36-.4a.58.58 0 0 1 -.15-.25l-.15-.36a.6.6 0 0 1 -.2-.27c-.09-.21-.09-.26.12-.41s.13-.24.18-.38 0-.05.06-.06a.11.11 0 0 1 .12.06c0 .08 0 .16.06.23s.15 0 .18-.12a.67.67 0 0 1 .47-.33.16.16 0 0 1 .13 0 .16.16 0 0 1 .06.17.33.33 0 0 1 -.07.13c-.11.21-.11.21.12.35h.33a.27.27 0 0 0 .27-.27.48.48 0 0 1 -.11-.36c0-.19.05-.33.14-.33s.16.09.23.15a1.78 1.78 0 0 1 .42.52.61.61 0 0 1 0 .64l-.11.16-.56.5v.5a.23.23 0 0 0 .08.11.11.11 0 0 0 .15-.08.85.85 0 0 1 .27-.35.7.7 0 0 1 .16-.1.18.18 0 0 1 .25.15v.64a5.58 5.58 0 0 0 -.35.69 2.22 2.22 0 0 1 -.34.54s0 0 .06.07a.31.31 0 0 1 .05.49 1.2 1.2 0 0 1 -.09.5.65.65 0 0 1 -.51 0 1.18 1.18 0 0 0 -.27-.06l-.07.12a.16.16 0 0 1 0 .07 1 1 0 0 1 -.08.41l.07.07c.17.19.15.3-.07.34a3.22 3.22 0 0 0 -.69.2.24.24 0 0 0 -.16.23 1 1 0 0 0 0 .24.65.65 0 0 1 -.26.69.88.88 0 0 0 -.12.19.27.27 0 0 0 .27.08 5.08 5.08 0 0 1 .51-.17 1 1 0 0 0 .76-.62.79.79 0 0 1 .56-.44.47.47 0 0 0 .39-.38.24.24 0 0 1 0-.09c0-.08.08-.15.18-.15s.14.1.12.23a.91.91 0 0 0 .06.67 1 1 0 0 1 .12-.16.22.22 0 0 1 .3 0 .7.7 0 0 1 .25.73l.27.12a.33.33 0 0 1 .23.28.8.8 0 0 0 .39.4.79.79 0 0 0 .43 0 .21.21 0 0 1 .18 0c.09.13.18.15.32 0s.16 0 .21.06a3.21 3.21 0 0 1 .31.5.36.36 0 0 1 -.1.48c-.16.1 0 .14 0 .22a.15.15 0 0 1 .05.13.13.13 0 0 1 -.07.14.84.84 0 0 0 -.57.26s-.12 0-.18 0l-.41.11a.14.14 0 0 1 -.09 0 .65.65 0 0 1 -.31 0l-.11.09h-.09a.81.81 0 0 1 -.1.09h-.19l-.1-.1-.1-.1c-.06 0 0-.15-.1-.2h-.1a.63.63 0 0 0 -.1.3l.3.28a1.35 1.35 0 0 0 .5.17.21.21 0 0 1 .19.14c.1.07.11.24.27.27s.19 0 .14-.14a.15.15 0 0 1 0-.08h.12s0 .23.18.14 0 0 0 0a1.3 1.3 0 0 1 .58-.17c.19 0 .19 0 .22.18s.08.17.19.14.22-.13.36-.1a.38.38 0 0 0 .43-.14s.09 0 .12 0l.2.2c0-.05.06-.09.07-.13s.11-.14.21-.09h.1v-.17s0 0 0 0l.09.1a.37.37 0 0 0 .07-.12c0-.1.1-.15.17-.07s.24.06.36 0a.24.24 0 0 1 .35 0 .5.5 0 0 1 .14.35.17.17 0 0 0 .25 0 1 1 0 0 1 .64-.13.39.39 0 0 1 .4 0 .77.77 0 0 0 .39.17v-.18s0 0 .06 0a.11.11 0 0 1 0 .19v.1h.19a.22.22 0 0 1 .1-.19s-.06-.08-.08-.12a.09.09 0 0 1 0-.09.08.08 0 0 1 .08 0 .72.72 0 0 1 .29.31c.07 0 .09 0 .09-.13s0-.18.15-.12a2.07 2.07 0 0 1 .25.15.11.11 0 0 1 .1.1l-.1-.1.1.1.17.09a.35.35 0 0 1 .34-.24 10.7 10.7 0 0 0 1.69-.31c.2 0 .23 0 .28.2s.09.28.28.26.24-.07.37-.09a2 2 0 0 0 1.07-.27.21.21 0 0 1 .19 0h.18c.3-.15.65-.13.93-.3a2.24 2.24 0 0 1 .53-.23c.19-.05.32-.3.57-.19a.18.18 0 0 0 .08 0c0-.17.2-.13.31-.18s.05-.24.14-.35a1.58 1.58 0 0 0 .12-.15l.44-.47a.67.67 0 0 1 .18-.16l1.2-.58c.09-.05.16 0 .17.09a.17.17 0 0 1 0 .1c0 .07 0 .14.05.17a.7.7 0 0 0 .19.06.13.13 0 0 0 .13-.12.2.2 0 0 0 -.05-.14.12.12 0 0 1 0-.17c.08-.07.11 0 .15.05s.13.18.2.26.05-.1.08-.15.09-.16.22-.14a.11.11 0 0 0 .09-.18c0-.08-.14-.14-.13-.25s.28-.21.47-.11a0 0 0 0 1 0 0 .2.2 0 0 1 .07.16c.07-.12.13-.24.19-.36s0 0 0 0a.33.33 0 0 1 .44 0 1.57 1.57 0 0 0 .26.12c.2-.06.24-.28.4-.4s.18-.18.31 0a.13.13 0 0 0 .12 0c.13-.19.37-.26.48-.47a3.54 3.54 0 0 0 .62-.3 3 3 0 0 1 .87-.54.54.54 0 0 0 .12-.09 10.12 10.12 0 0 0 1.38-1.54.94.94 0 0 1 .27-.29 3 3 0 0 0 .62-.55c.06-.07.11-.15.19-.14.28 0 .36-.2.46-.39s.13-.26.19-.4 0-.05 0-.08l-.09-.11c-.18.05-.29.13-.24.35a.39.39 0 0 1 0 .18.23.23 0 0 1 -.28.12.24.24 0 0 1 -.13-.28 1.43 1.43 0 0 1 .14-.2.46.46 0 0 0 .12-.35s0-.08-.07-.11a.25.25 0 0 1 .24-.25 1.92 1.92 0 0 1 .24 0c.19 0 .27-.11.26-.32a.3.3 0 0 1 .14-.32.09.09 0 0 1 .06 0 .38.38 0 0 1 .26 0h.08c.1-.05.18 0 .27 0l.41.16.3-.4a.27.27 0 0 1 .1-.19 1.71 1.71 0 0 1 0-1c0-.09 0-.2 0-.29a.64.64 0 0 1 .22-.43.18.18 0 0 1 .3.1.33.33 0 0 1 0 .1c0 .07 0 .14.06.17s.14-.07.18-.13a.23.23 0 0 1 .07-.07c0-.16-.07-.32-.11-.48a.45.45 0 0 1 0-.32.29.29 0 0 1 .22-.18.2.2 0 0 1 .2.18c0 .19.13.24.3.22h.24a4.15 4.15 0 0 0 .64-.81c.18-.28.34-.57.52-.84a20.4 20.4 0 0 0 1.48-2.67c0-.06.09-.09.12-.14a1.44 1.44 0 0 0 .3-.95c0-.24.14-.48.16-.74a1.25 1.25 0 0 0 .24-.81c0-.07 0-.17 0-.19.24-.14.16-.31.09-.5s0-.19.07-.28a.41.41 0 0 0 .09-.41.54.54 0 0 1 .1-.55c.07-.09.1-.16 0-.26s0-.15 0-.22.12-.13.09-.22 0-.25.07-.37.08-.38.15-.56a1.28 1.28 0 0 0 .13-.57c0-.21.18-.35.16-.55a.43.43 0 0 1 0 0 1.47 1.47 0 0 1 .15-.8 4 4 0 0 0 .18-.56 3.1 3.1 0 0 1 .15-.6.29.29 0 0 0 0-.24.45.45 0 0 1 0-.58.26.26 0 0 0 0-.19 3.15 3.15 0 0 1 0-.92 1.65 1.65 0 0 0 0-.7.19.19 0 0 1 .07-.22c.17-.13.17-.26 0-.41a.21.21 0 0 1 0-.27.91.91 0 0 0 .15-.73.26.26 0 0 1 .08-.23.24.24 0 0 0 0-.27 1.19 1.19 0 0 1 0-.81.15.15 0 0 0 0-.18c-.08-.13 0-.15.11-.18s.77-.07.68-.12zm-53.77-23.5.1-.05a.16.16 0 0 1 -.1.05zm13.31-7.13h.06zm7.77-.14a.08.08 0 0 1 -.03 0zm-26.11 42.58h.06zm6.13 12.82s0 0 0 0zm12.31-.52s0-.06.05-.06l-.05.06s0 0 0 0zm.12.55s0 0-.07-.06 0-.06 0-.07.07 0 .08 0a.07.07 0 0 1 -.03.13zm.25-2.63-.1.1c-.15.13-.2.14-.34 0a1 1 0 0 0 -.57-.27.29.29 0 0 0 -.4-.1.65.65 0 0 1 -.12-.79c.07 0 .15-.08.22 0a2.12 2.12 0 0 1 .27.34.25.25 0 0 0 .31.16h.19a.09.09 0 0 0 .08-.05s0-.08-.06-.11l-.1-.1a.55.55 0 0 1 0-.4.58.58 0 0 1 .13-.14c.11-.08.23-.16.36-.06a.37.37 0 0 1 .11.36.6.6 0 0 1 -.06.23.37.37 0 0 0 .11.44c.14.14.12.23-.05.39zm1.72-2.78a.12.12 0 0 1 -.14.09c-.07 0-.11 0-.1-.14a.12.12 0 0 1 .15-.09.11.11 0 0 1 .07.14zm-.09-21.79c-.07.15-.07.36-.29.41-.16.21-.29.45-.57.52a.84.84 0 0 1 -.45.18.66.66 0 0 0 -.44.33.81.81 0 0 1 -.66.43c-.22 0-.34-.1-.31-.33a1.56 1.56 0 0 0 0-.48c0-.15 0-.23.22-.22s.23 0 .28-.14a.25.25 0 0 1 0-.39 4.07 4.07 0 0 1 .43-.4c.13-.08.2-.24.39-.12s.13 0 .17-.07.05-.12.08-.17a.36.36 0 0 1 .41-.19.53.53 0 0 0 .33 0 .25.25 0 0 1 .19 0c.33.15.39.29.22.64zm.58 21.82c-.08 0-.17 0-.2-.09s.08-.24.22-.26a.19.19 0 0 1 .2.16c0 .11-.08.18-.23.19zm.44-24a.13.13 0 0 1 -.16-.12.12.12 0 0 1 .09-.15c.07 0 .16 0 .17.12a.15.15 0 0 1 -.12.14zm4.43 31.45a.14.14 0 0 1 -.17-.13.15.15 0 0 1 .11-.18.17.17 0 0 1 .2.15.16.16 0 0 1 -.15.15zm1.22-30.26a.15.15 0 0 1 .15.16.25.25 0 0 1 -.24.21.12.12 0 0 1 -.11-.14.2.2 0 0 1 .19-.24zm-.51 1.32a.22.22 0 0 1 .21-.26.2.2 0 1 1 0 .39.19.19 0 0 1 -.22-.14zm.25.66a.13.13 0 0 1 .17.05c.11.2.22.4.32.61a.32.32 0 0 1 0 .13s-.06 0-.1 0-.09 0-.11-.07a5.7 5.7 0 0 1 -.32-.6.12.12 0 0 1 .03-.13zm.28 30.53q-.13 0-.15-.21v-.1a1 1 0 0 1 0-.24c0-.07.06-.11.13-.12a.16.16 0 0 1 .16.09.53.53 0 0 1 .07.37.23.23 0 0 1 -.22.2zm.18 3.3a.1.1 0 0 1 0-.2.13.13 0 0 1 .1.14c.03.04-.06.07-.11.05zm.26-4.6a.29.29 0 0 1 -.28-.27 3.18 3.18 0 0 1 .06-.43.19.19 0 0 1 .11-.08.13.13 0 0 1 .16.06 1.42 1.42 0 0 1 .12.57.17.17 0 0 1 -.18.14zm.32 1.54c-.1 0-.21-.09-.19-.17a.19.19 0 0 1 .18-.13.16.16 0 0 1 .18.12c.01.07-.09.17-.18.17zm9.15-35.19a1.51 1.51 0 0 1 .85-.59h.19a.34.34 0 0 1 .42.13c.06.08.16.14.13.25s-.15.14-.27.16a1.49 1.49 0 0 1 -.63.05c-.12 0-.21.06-.29.14v.18a1.1 1.1 0 0 1 .09.62c0 .07-.06.12-.13.12a.12.12 0 0 1 -.15-.1c0-.17-.07-.35-.1-.53a.39.39 0 0 1 -.11-.43zm-2.15-2.86a.15.15 0 0 1 .25 0c0 .08.08.18.12.26a1.14 1.14 0 0 1 .71.77c.07.18 0 .32-.23.32a1.71 1.71 0 0 1 -.39 0 .29.29 0 0 1 -.24-.21.19.19 0 0 1 .07-.26s.15 0 .13-.1-.08-.1-.12-.15 0 0 0 0-.21-.24-.31-.37-.06-.2.01-.26zm-2.21 3.25a.57.57 0 0 0 .48-.29c.06-.1.2-.16.32-.26-.06-.12-.15-.12-.22-.16a.26.26 0 0 0 -.35.07c-.1.11-.21.06-.26-.07a.35.35 0 0 1 0-.33 2.11 2.11 0 0 1 .19-.23c.08-.1.14-.1.25 0a1.43 1.43 0 0 0 .31.24.6.6 0 0 1 .38.41c0 .07.1.13.16.19a.07.07 0 0 0 .12 0s0-.06 0-.09a.47.47 0 0 1 .47-.4s.1.06.07.1a.43.43 0 0 0 -.05.41 2.89 2.89 0 0 1 0 .59.47.47 0 0 1 -.18.28.15.15 0 0 1 -.25 0c-.06-.08-.11-.16-.16-.24a.72.72 0 0 0 -.25-.24.37.37 0 0 0 -.49.05l-.44.4a.15.15 0 0 1 -.18 0 .25.25 0 0 1 -.14-.24.15.15 0 0 1 .22-.19zm-.26 1a.55.55 0 0 1 .49-.17.09.09 0 0 1 .09.09.7.7 0 0 1 0 .14q0 .27.21.18l.59-.23a.34.34 0 0 1 .24 0 .18.18 0 0 1 .16.18 1.33 1.33 0 0 1 -.06.12.31.31 0 0 1 -.27.1.93.93 0 0 0 -.64.19.56.56 0 0 1 -.17.09.3.3 0 0 1 -.39-.11.56.56 0 0 1 -.09-.17c-.08-.2-.28-.3-.14-.45zm0 1.83a.49.49 0 0 0 .2-.13.28.28 0 0 0 0-.09c0-.1-.07-.2-.1-.31a.12.12 0 0 1 0-.08.08.08 0 0 1 .08 0l.18.27.09.1v.48a.44.44 0 0 0 .08.11s.08 0 .09 0a.65.65 0 0 0 .18-.58.44.44 0 0 0 -.15-.3 1.37 1.37 0 0 1 -.22-.2.19.19 0 0 1 0-.13.11.11 0 0 1 .08 0 .73.73 0 0 0 .38-.05c.39-.17.61-.05.7.36v.1a.14.14 0 0 0 .18.11 3.38 3.38 0 0 0 .42-.13.27.27 0 0 1 .31.08.33.33 0 0 0 .41 0 .53.53 0 0 1 .33-.06 1.15 1.15 0 0 0 .79-.15c.12-.08.27 0 .28.14a.35.35 0 0 0 0 .18l.14.15c.19 0 .25-.18.34-.3s.12-.12.21-.08a.18.18 0 0 1 .12.15.76.76 0 0 1 -.31.77 2.25 2.25 0 0 1 -.31.16 3.09 3.09 0 0 1 -.23.31.37.37 0 0 1 -.59 0l-.14-.13a.3.3 0 0 0 -.27-.09c-.13 0-.12.13-.14.22s-.1.21-.28.2h-.58a2.66 2.66 0 0 0 -.29 1.17 1.55 1.55 0 0 1 0 .29 1 1 0 0 1 0 .24c0 .09-.08.16-.17.12a.9.9 0 0 0 -.48-.07.45.45 0 0 1 -.47-.59s0-.09 0-.14a.19.19 0 0 0 -.08-.25l-.41-.29a.37.37 0 0 0 -.53 0 .11.11 0 0 1 -.17 0 2.82 2.82 0 0 0 -.53-.44.24.24 0 0 1 -.08-.31c0-.06.07-.11.09-.17a.85.85 0 0 1 .81-.68zm-.64-3.55a.18.18 0 0 1 .05.07s-.08 0-.09-.07-.01-.05 0-.04zm-2.48-.76a1.15 1.15 0 0 1 .54-.32.17.17 0 0 1 .19.12.21.21 0 0 1 -.07.26c-.17.08-.36.14-.54.21s-.1 0-.12-.09a.13.13 0 0 1 -.04-.22zm-.53 1.72a.14.14 0 0 1 .17 0l.07.06c.24.22.23.31-.05.47a.23.23 0 0 1 -.14 0c-.05 0-.05-.07 0-.12s0 0 0 0a.35.35 0 0 0 -.05-.28.1.1 0 0 1 -.04-.17zm.11 31.82a.2.2 0 1 1 .1-.38.21.21 0 0 1 .16.22.22.22 0 0 1 -.3.12zm1.69-28.81c-.43.08-.6.42-.84.7a.17.17 0 0 0 .1.27c.12 0 .29 0 .32.16s-.12.18-.18.27a.6.6 0 0 1 -.41.32c-.19 0-.23.23-.33.35s-.2.1-.26-.05a3 3 0 0 1 -.21-.9c0-.18 0-.3.17-.35a.27.27 0 0 0 .23-.36.3.3 0 0 1 .22-.38.56.56 0 0 0 .2-.14.66.66 0 0 1 .58-.21.11.11 0 0 0 .14-.1.14.14 0 0 0 -.16-.14.68.68 0 0 1 -.35-.17.18.18 0 0 1 -.14-.17.18.18 0 0 1 .12-.19.45.45 0 0 1 .45 0c.14 0 .31 0 .41.12a1.8 1.8 0 0 1 .24.48.47.47 0 0 1 -.34.45zm.4-2.31a.73.73 0 0 0 -.42.23.34.34 0 0 1 -.48.06c-.1-.06-.18-.15-.31-.07s-.15.07-.22 0a.27.27 0 0 1 -.07-.27.35.35 0 0 1 .09-.17.62.62 0 0 0 .11-.37h-.13a.4.4 0 0 1 -.4-.21l-.07-.18a.21.21 0 0 1 .12-.29c.18-.08.35-.17.39-.4 0-.07.09-.09.16-.09a.16.16 0 0 1 .15.16v.24a.44.44 0 0 0 .37 0 .68.68 0 0 0 .32-.35c.06-.17.11-.34.16-.51a.62.62 0 0 1 .18-.29.18.18 0 0 1 .26 0c0 .24-.13.49.08.7a.59.59 0 0 1 .23.24 2.24 2.24 0 0 0 .32.44.81.81 0 0 1 .17.9.56.56 0 0 1 0 .08c-.13.13-.15.13-.27 0s-.06-.08-.09-.11l-.39.1a2.31 2.31 0 0 1 -.3.12zm.7 7.26a.36.36 0 0 1 -.1.07h-.13a.45.45 0 0 1 -.3-.41.2.2 0 0 1 .13-.19.33.33 0 0 1 .35.12.36.36 0 0 1 .01.37zm.06-.67c-.09-.09-.21-.16-.3-.25a.21.21 0 0 1 0-.27c0-.1.17-.17.25-.11a1.65 1.65 0 0 0 .84.19s.08 0 .13.07a.32.32 0 0 1 .21.1.26.26 0 0 1 -.09.41 1 1 0 0 1 -1.08-.18zm1 3.64a.17.17 0 0 1 -.16-.2.21.21 0 0 1 .24-.19.18.18 0 0 1 .16.2.22.22 0 0 1 -.25.15zm.93-.51a.17.17 0 0 1 -.16-.17.23.23 0 0 1 .2-.23.2.2 0 0 1 .21.17.22.22 0 0 1 -.26.19zm3.14-4.54a.44.44 0 0 0 -.49.37.22.22 0 0 1 0 .08.77.77 0 0 0 .12.47.43.43 0 0 1 0 .33.22.22 0 0 1 -.33.1.48.48 0 0 1 -.09-.11 1 1 0 0 0 -.32-.37.47.47 0 0 1 -.15-.61c0-.1.14-.2 0-.32a.44.44 0 0 0 -.54.08c0 .05-.11.07-.17.09s-.19.13-.18.29a.5.5 0 0 1 -.19.37 1.38 1.38 0 0 1 -.92.36.5.5 0 0 1 -.47-.2.36.36 0 0 1 -.29-.35c0-.13 0-.26 0-.39s-.14-.17-.27-.14a1 1 0 0 1 -.14.4.23.23 0 0 1 -.24.13.25.25 0 0 1 -.2-.24 1.48 1.48 0 0 1 .1-.66l.14-.15a.36.36 0 0 1 .45-.06 1.19 1.19 0 0 0 .35.15c.27 0 .43.13.42.43a.13.13 0 0 0 .18.11 1.22 1.22 0 0 1 .47-.08.41.41 0 0 0 .34-.18l.23-.31a.37.37 0 0 1 .51-.15.92.92 0 0 0 .56.12l.27-.13c.47-.19.47-.19.91.11h.34c.26.06.26.06.23-.25a.17.17 0 0 1 .1-.2.16.16 0 0 1 .18.06.7.7 0 0 0 .25.23c.18.11.2.18.14.36s-.11.28-.15.42a.2.2 0 0 1 -.35.07c-.12-.13-.23-.28-.34-.42a.53.53 0 0 1 -.47.15zm.27 31.5s-.08-.06-.06-.11a.08.08 0 0 1 .08 0s0 0 0 .08 0-.01-.03-.01zm.76-29.68a1 1 0 0 1 -.1-.17.14.14 0 0 0 -.21 0 .29.29 0 0 1 -.22.09.21.21 0 0 1 -.19-.12.19.19 0 0 1 0-.23 5.86 5.86 0 0 1 .55-.3.21.21 0 0 1 .25.12c.09.14.16.28.24.43a.23.23 0 0 1 -.06.27.21.21 0 0 1 -.27-.13zm.43 29.05s-.06 0-.08 0a0 0 0 0 1 0-.07h.08s.03.01-.01.03zm.51-35.64-.33.54a.18.18 0 0 1 -.32 0 .38.38 0 0 1 0-.18 1.21 1.21 0 0 1 .11-.32c.18-.39.18-.39-.21-.52h-.09a.23.23 0 0 1 .06-.44h.27.36a.24.24 0 0 1 .21.24v.49a.55.55 0 0 1 -.07.15zm3.11 4.8a.16.16 0 0 1 -.21-.13.19.19 0 0 1 .19-.18.16.16 0 0 1 .18.11.18.18 0 0 1 -.17.16zm2.71 17.04a.18.18 0 0 1 -.22-.19c0-.1.09-.12.17-.13a.17.17 0 0 1 .21.13.18.18 0 0 1 -.16.19zm.56 4.61a.22.22 0 0 1 -.23.15.2.2 0 0 1 -.17-.2.22.22 0 0 1 .22-.21.24.24 0 0 1 .18.26zm.42.64c-.07 0-.16-.11-.17-.21a.21.21 0 0 1 .21-.22.16.16 0 0 1 .16.14c0 .14-.1.29-.2.29zm5.06-37.36h.34c.15 0 .23-.22.39-.12s0 .29.16.38a.29.29 0 0 1 .07.17c0 .08-.07.17-.2.16s-.23 0-.29-.15a.53.53 0 0 0 -.44-.23.28.28 0 0 1 -.08-.11c-.06-.07-.01-.1.05-.1zm-1.58 25.2a.21.21 0 0 1 .19.23.25.25 0 0 1 -.2.18.24.24 0 0 1 -.22-.22.22.22 0 0 1 .23-.19zm-1 8a.18.18 0 0 1 .19-.13c.1 0 .1.11.11.19v.06a.65.65 0 0 1 0 .13.16.16 0 0 1 -.19.12.18.18 0 0 1 -.13-.19.64.64 0 0 1 .06-.13zm-1.4-5s-.09 0-.09-.09a.12.12 0 0 1 .15-.12.1.1 0 0 1 .07.11.12.12 0 0 1 -.09.12zm.46 5.71a.13.13 0 0 1 -.11-.14.22.22 0 0 1 .23-.21.11.11 0 0 1 .11.13.23.23 0 0 1 -.19.24zm.19-5.61a.08.08 0 0 1 .09-.09c.06 0 .09 0 .09.1a.11.11 0 0 1 -.1.08.08.08 0 0 1 -.04-.07zm.63 10.5a.25.25 0 0 1 -.2-.24.27.27 0 0 1 .25-.24.26.26 0 0 1 .23.26.27.27 0 0 1 -.24.24zm1.59-2.08a2.06 2.06 0 0 1 -.37-.23c-.06 0 0-.19 0-.27s.07 0 .07 0 .31.07.46.14a.19.19 0 0 1 .11.2c.04.12-.11.24-.23.18zm-.08-1.32c0-.09.1-.2.18-.2a.31.31 0 0 1 .24.26.2.2 0 0 1 -.2.17.25.25 0 0 1 -.22-.23zm1.54.48a.59.59 0 0 1 -.19 0c-.06 0-.13 0-.17 0s0 .07 0 .1.18.15.12.29-.19 0-.34-.07-.19-.19-.14-.37a3 3 0 0 1 .11-.32c.08-.24.19-.29.4-.19a.92.92 0 0 1 .25.15.2.2 0 0 1 -.06.41zm1.54-5.89a1.18 1.18 0 0 1 -.29.71l-.18.24a.2.2 0 0 1 0 .08.55.55 0 0 0 -.12.62.44.44 0 0 1 -.06.5s0 .15 0 .23a.81.81 0 0 1 -.09.37v.34a.58.58 0 0 1 -.28.54.58.58 0 0 1 0 .14c-.07.18-.13.2-.26.06s-.16-.09-.24 0a.93.93 0 0 0 -.13.15.52.52 0 0 1 -.53.24 1.3 1.3 0 0 1 -.56.42c-.2.21-.27.22-.41 0h-.1c-.27 0-.39.19-.26.41a1 1 0 0 1 .2.4c0 .11-.09.21-.18.15a1.23 1.23 0 0 0 -1-.09.21.21 0 0 1 -.27-.16.7.7 0 0 1 -.08-.33 2 2 0 0 1 .15-.76c.17-.29.22-.31.47-.12a.35.35 0 0 0 .47 0 1.39 1.39 0 0 0 .56-.59 4 4 0 0 1 .39-.56 1.06 1.06 0 0 1 .56-.58 1.81 1.81 0 0 0 .32-.22.28.28 0 0 0 .08-.11s0-.06 0-.09a.51.51 0 0 1 .06-.22.12.12 0 0 1 .05-.07c0-.11 0-.22 0-.33a.8.8 0 0 0 -.07-.57 1.29 1.29 0 0 1 -.08-.28v-.11a2.06 2.06 0 0 0 -.51-.51.36.36 0 0 1 -.17-.29c0-.1 0-.22.13-.23.28 0 .35-.26.44-.46a5 5 0 0 1 .26-.46.79.79 0 0 1 .22-.19c.25-.15.41-.07.47.23v.15a1.13 1.13 0 0 1 .31.87l.07.08c.08.13.18.19.32.1s.24-.13.36 0a.36.36 0 0 1 -.04.3zm2.14-2.79a.23.23 0 0 1 .25-.18.23.23 0 0 1 .17.21.22.22 0 0 1 -.23.21.23.23 0 0 1 -.21-.24zm-.76-24.88c-.06.23-.16.3-.36.26l-.48-.09c-.11-.11-.15-.28-.3-.37a.2.2 0 0 1 -.06-.33c-.05-.29.11-.37.36-.39a.56.56 0 0 0 .37-.21c.19-.21.2-.21.38 0s.26.15.24.34l.4.34s.19 0 .15.13-.11.11-.18.14a.43.43 0 0 1 -.28 0c-.2-.04-.21-.02-.26.18zm.41 25.94-.16-.07a.1.1 0 0 1 0-.13l.17-.24c.1-.13.16-.16.23-.1a.25.25 0 0 1 .1.3.34.34 0 0 1 -.36.24zm1 .71a1.59 1.59 0 0 0 -.52.13c-.2.09-.3 0-.36-.19 0-.07 0-.13 0-.14s.01-.16.14-.16.23 0 .27-.13a2.88 2.88 0 0 0 .2-.65c0-.1.11-.16.22-.15a.2.2 0 0 1 .17.25.59.59 0 0 0 0 .6.64.64 0 0 1 0 .2.22.22 0 0 1 -.12.24zm1.73-23.28a.68.68 0 0 0 -.61.33c-.13.18-.37.26-.49.48a4.18 4.18 0 0 1 -.38-.25.44.44 0 0 1 -.12-.64s.1-.07.12-.05a.26.26 0 0 0 .39-.18c.06-.21.2-.21.37-.18s.07 0 .1 0 .22.08.33 0 .07-.21.17-.32c.08.24.15.44.21.64a.13.13 0 0 1 -.09.17z" fill="#ff49b0"/></svg>